<?xml version="1.0" encoding="UTF-8" standalone="no"?>
<!-- Created with Inkscape (http://www.inkscape.org/) -->

<svg
   xmlns:dc="http://purl.org/dc/elements/1.1/"
   xmlns:cc="http://creativecommons.org/ns#"
   xmlns:rdf="http://www.w3.org/1999/02/22-rdf-syntax-ns#"
   xmlns:svg="http://www.w3.org/2000/svg"
   xmlns="http://www.w3.org/2000/svg"
   xmlns:sodipodi="http://sodipodi.sourceforge.net/DTD/sodipodi-0.dtd"
   xmlns:inkscape="http://www.inkscape.org/namespaces/inkscape"
   width="210mm"
   height="297mm"
   viewBox="0 0 210 297"
   version="1.1"
   id="svg8"
   inkscape:version="0.92.1 r15371"
   sodipodi:docname="Оформление.svg">
  <defs
     id="defs2" />
  <sodipodi:namedview
     id="base"
     pagecolor="#ffffff"
     bordercolor="#666666"
     borderopacity="1.0"
     inkscape:pageopacity="0.0"
     inkscape:pageshadow="2"
     inkscape:zoom="1.4"
     inkscape:cx="22.876496"
     inkscape:cy="169.91849"
     inkscape:document-units="mm"
     inkscape:current-layer="layer1"
     showgrid="true"
     showguides="true"
     inkscape:guide-bbox="true"
     inkscape:snap-global="false"
     inkscape:window-width="1600"
     inkscape:window-height="877"
     inkscape:window-x="-8"
     inkscape:window-y="-8"
     inkscape:window-maximized="1">
    <sodipodi:guide
       position="11.339286,8.1"
       orientation="0,1"
       id="guide4485"
       inkscape:locked="false"
       inkscape:label=""
       inkscape:color="rgb(0,0,255)" />
    <sodipodi:guide
       position="31.75,193.52381"
       orientation="1,0"
       id="guide4487"
       inkscape:locked="false"
       inkscape:label=""
       inkscape:color="rgb(0,0,255)" />
    <sodipodi:guide
       position="67.08465,12.47"
       orientation="0,1"
       id="guide4495"
       inkscape:locked="false"
       inkscape:label=""
       inkscape:color="rgb(0,0,255)" />
    <sodipodi:guide
       position="74.300927,16.85"
       orientation="0,1"
       id="guide4497"
       inkscape:locked="false"
       inkscape:label=""
       inkscape:color="rgb(0,0,255)" />
    <sodipodi:guide
       position="41.08,41.48"
       orientation="1,0"
       id="guide4499"
       inkscape:locked="false"
       inkscape:label=""
       inkscape:color="rgb(0,0,255)" />
    <sodipodi:guide
       position="50.42,75.102739"
       orientation="1,0"
       id="guide4501"
       inkscape:locked="false"
       inkscape:label=""
       inkscape:color="rgb(0,0,255)" />
    <sodipodi:guide
       position="59.75,63.877419"
       orientation="1,0"
       id="guide4503"
       inkscape:locked="false"
       inkscape:label=""
       inkscape:color="rgb(0,0,255)" />
    <sodipodi:guide
       position="79.5,64.411958"
       orientation="1,0"
       id="guide4505"
       inkscape:locked="false"
       inkscape:label=""
       inkscape:color="rgb(0,0,255)" />
  </sodipodi:namedview>
  <metadata
     id="metadata5">
    <rdf:RDF>
      <cc:Work
         rdf:about="">
        <dc:format>image/svg+xml</dc:format>
        <dc:type
           rdf:resource="http://purl.org/dc/dcmitype/StillImage" />
        <dc:title></dc:title>
      </cc:Work>
    </rdf:RDF>
  </metadata>
  <g
     inkscape:label="Layer 1"
     inkscape:groupmode="layer"
     id="layer1">
    <rect
       style="fill:#232323;fill-opacity:1;stroke-width:0.17434831;stroke:none;stroke-opacity:1"
       id="rect4493"
       width="100"
       height="60"
       x="0"
       y="237" />
    <circle
       r="3.8569331"
       cy="287.23386"
       cx="22.093594"
       id="circle4519"
       style="fill:none;fill-opacity:1;stroke:#000000;stroke-width:0.28613362;stroke-opacity:1" />
    <rect
       style="fill:none;fill-opacity:1;stroke:#000000;stroke-width:0.2257583;stroke-opacity:1"
       id="rect4521"
       width="65.774246"
       height="15.774241"
       x="17.66288"
       y="250.56288" />
    <text
       xml:space="preserve"
       style="font-style:normal;font-weight:normal;font-size:6.58734274px;line-height:125%;font-family:sans-serif;letter-spacing:0px;word-spacing:0px;fill:#ffffff;fill-opacity:1;stroke:#000000;stroke-width:1.06499999;stroke-linecap:butt;stroke-linejoin:miter;stroke-opacity:1;stroke-miterlimit:4;stroke-dasharray:none;paint-order:stroke fill markers"
       x="1.6158148"
       y="308.17389"
       id="text4525"
       transform="scale(1.2704378,0.78713024)"><tspan
         sodipodi:role="line"
         id="tspan4523"
         x="1.6158148"
         y="308.17389"
         style="font-style:normal;font-variant:normal;font-weight:normal;font-stretch:normal;font-family:'AR DESTINE';-inkscape-font-specification:'AR DESTINE';stroke-width:1.06499999;fill:#ffffff;fill-opacity:1;stroke:#000000;stroke-opacity:1;stroke-miterlimit:4;stroke-dasharray:none;paint-order:stroke fill markers">Quasar ARM</tspan></text>
    <g
       id="g4579"
       transform="matrix(0.09984399,0,0,0.09984524,26.749722,275.14994)"
       style="fill:#ffffff;fill-opacity:1">
      <path
         style="fill:#ffffff;fill-opacity:1"
         inkscape:connector-curvature="0"
         d="M 49.938,10 C 27.812,10 9.875,27.936 9.875,50.062 9.875,72.187 27.812,90.124 49.937,90.124 72.063,90.125 90,72.188 90,50.062 90,27.936 72.063,10 49.938,10 Z m 0,69.901 c -16.479,0 -29.839,-13.359 -29.839,-29.839 0,-16.48 13.359,-29.839 29.839,-29.839 16.48,0 29.839,13.359 29.839,29.839 0,16.48 -13.36,29.839 -29.839,29.839 z"
         id="path4575" />
      <polygon
         style="clip-rule:evenodd;fill:#ffffff;fill-rule:evenodd;fill-opacity:1"
         points="29.984,55.995 35.502,48.341 46.427,56.448 62.15,33.728 69.89,39.568 48.585,70.199 "
         id="polygon4577" />
    </g>
    <g
       id="g4669"
       style="fill:#ffffff;fill-opacity:1">
      <path
         style="fill:#ffffff;stroke-width:0.09984461;fill-opacity:1"
         inkscape:connector-curvature="0"
         d="m 41.071741,280.52224 c -2.209148,0 -4.00005,1.79083 -4.00005,4 0,2.20908 1.790902,4 3.99995,4 2.209148,10e-5 4.00005,-1.79082 4.00005,-4 0,-2.20917 -1.790902,-4 -3.99995,-4 z m 0,6.97928 c -1.645329,0 -2.979245,-1.33383 -2.979245,-2.97928 0,-1.64545 1.333816,-2.97928 2.979245,-2.97928 1.645429,0 2.979245,1.33383 2.979245,2.97928 0,1.64545 -1.333916,2.97928 -2.979245,2.97928 z"
         id="path4619" />
      <g
         id="g4623"
         transform="matrix(-0.07918391,0,0,0.07918391,44.51504,205.16261)"
         style="fill:#ffffff;fill-opacity:1">
        <path
           id="path4621"
           overflow="visible"
           display="inline"
           visibility="visible"
           marker="none"
           d="m 69.281235,1002.3622 -3.78125,-4.09376 -26.00002,-28 -8.7812,8.1875 22.18747,23.90626 -22.18747,23.9062 8.7812,8.1875 26.00002,-28 z"
           style="color:#000000;text-indent:0;text-transform:none;direction:ltr;baseline-shift:baseline;display:inline;overflow:visible;visibility:visible;fill:#ffffff;fill-opacity:1;stroke:none;enable-background:accumulate"
           inkscape:connector-curvature="0" />
      </g>
    </g>
    <g
       id="g4656"
       transform="rotate(-90,50.402979,288.90682)"
       style="fill:#ffffff;fill-opacity:1">
      <path
         id="path4647"
         d="m 50.403029,284.90682 c -2.209148,0 -4.00005,1.79083 -4.00005,4 0,2.20908 1.790902,4 3.99995,4 2.209148,1e-4 4.00005,-1.79082 4.00005,-4 0,-2.20917 -1.790902,-4 -3.99995,-4 z m 0,6.97928 c -1.645329,0 -2.979245,-1.33383 -2.979245,-2.97928 0,-1.64545 1.333816,-2.97928 2.979245,-2.97928 1.645429,0 2.979245,1.33383 2.979245,2.97928 0,1.64545 -1.333916,2.97928 -2.979245,2.97928 z"
         inkscape:connector-curvature="0"
         style="fill:#ffffff;stroke-width:0.09984461;fill-opacity:1" />
      <g
         transform="matrix(-0.07918391,0,0,0.07918391,53.846328,209.54719)"
         id="g4651"
         style="fill:#ffffff;fill-opacity:1">
        <path
           inkscape:connector-curvature="0"
           style="color:#000000;text-indent:0;text-transform:none;direction:ltr;baseline-shift:baseline;display:inline;overflow:visible;visibility:visible;fill:#ffffff;fill-opacity:1;stroke:none;enable-background:accumulate"
           d="m 69.281235,1002.3622 -3.78125,-4.09376 -26.00002,-28 -8.7812,8.1875 22.18747,23.90626 -22.18747,23.9062 8.7812,8.1875 26.00002,-28 z"
           marker="none"
           visibility="visible"
           display="inline"
           overflow="visible"
           id="path4649" />
      </g>
    </g>
    <g
       transform="matrix(0,1,1,0,-238.50386,229.76316)"
       id="g4664"
       style="fill:#ffffff;fill-opacity:1">
      <path
         style="fill:#ffffff;stroke-width:0.09984461;fill-opacity:1"
         inkscape:connector-curvature="0"
         d="m 50.403029,284.90682 c -2.209148,0 -4.00005,1.79083 -4.00005,4 0,2.20908 1.790902,4 3.99995,4 2.209148,1e-4 4.00005,-1.79082 4.00005,-4 0,-2.20917 -1.790902,-4 -3.99995,-4 z m 0,6.97928 c -1.645329,0 -2.979245,-1.33383 -2.979245,-2.97928 0,-1.64545 1.333816,-2.97928 2.979245,-2.97928 1.645429,0 2.979245,1.33383 2.979245,2.97928 0,1.64545 -1.333916,2.97928 -2.979245,2.97928 z"
         id="path4658" />
      <g
         id="g4662"
         transform="matrix(-0.07918391,0,0,0.07918391,53.846328,209.54719)"
         style="fill:#ffffff;fill-opacity:1">
        <path
           id="path4660"
           overflow="visible"
           display="inline"
           visibility="visible"
           marker="none"
           d="m 69.281235,1002.3622 -3.78125,-4.09376 -26.00002,-28 -8.7812,8.1875 22.18747,23.90626 -22.18747,23.9062 8.7812,8.1875 26.00002,-28 z"
           style="color:#000000;text-indent:0;text-transform:none;direction:ltr;baseline-shift:baseline;display:inline;overflow:visible;visibility:visible;fill:#ffffff;fill-opacity:1;stroke:none;enable-background:accumulate"
           inkscape:connector-curvature="0" />
      </g>
    </g>
    <g
       id="g4677"
       transform="matrix(-1,0,0,1,100.81884,0)"
       style="fill:#ffffff;fill-opacity:1">
      <path
         id="path4671"
         d="m 41.071741,280.52224 c -2.209148,0 -4.00005,1.79083 -4.00005,4 0,2.20908 1.790902,4 3.99995,4 2.209148,10e-5 4.00005,-1.79082 4.00005,-4 0,-2.20917 -1.790902,-4 -3.99995,-4 z m 0,6.97928 c -1.645329,0 -2.979245,-1.33383 -2.979245,-2.97928 0,-1.64545 1.333816,-2.97928 2.979245,-2.97928 1.645429,0 2.979245,1.33383 2.979245,2.97928 0,1.64545 -1.333916,2.97928 -2.979245,2.97928 z"
         inkscape:connector-curvature="0"
         style="fill:#ffffff;stroke-width:0.09984461;fill-opacity:1" />
      <g
         transform="matrix(-0.07918391,0,0,0.07918391,44.51504,205.16261)"
         id="g4675"
         style="fill:#ffffff;fill-opacity:1">
        <path
           inkscape:connector-curvature="0"
           style="color:#000000;text-indent:0;text-transform:none;direction:ltr;baseline-shift:baseline;display:inline;overflow:visible;visibility:visible;fill:#ffffff;fill-opacity:1;stroke:none;enable-background:accumulate"
           d="m 69.281235,1002.3622 -3.78125,-4.09376 -26.00002,-28 -8.7812,8.1875 22.18747,23.90626 -22.18747,23.9062 8.7812,8.1875 26.00002,-28 z"
           marker="none"
           visibility="visible"
           display="inline"
           overflow="visible"
           id="path4673" />
      </g>
    </g>
    <path
       id="path4679"
       d="m 79.496349,276.12827 c 2.209148,0 4.00005,1.79083 4.00005,4 0,2.20908 -1.790902,4 -3.99995,4 -2.209148,1e-4 -4.00005,-1.79082 -4.00005,-4 0,-2.20917 1.790902,-4 3.99995,-4 z m 0,6.97928 c 1.645329,0 2.979245,-1.33383 2.979245,-2.97928 0,-1.64545 -1.333816,-2.97928 -2.979245,-2.97928 -1.645429,0 -2.979245,1.33383 -2.979245,2.97928 0,1.64545 1.333916,2.97928 2.979245,2.97928 z"
       inkscape:connector-curvature="0"
       style="fill:#ffffff;fill-opacity:1;stroke-width:0.09984461" />
    <rect
       style="fill:#ffffff;fill-opacity:1;stroke:#3f3f3f;stroke-width:1.48199999;stroke-miterlimit:4;stroke-dasharray:none;stroke-opacity:1;paint-order:stroke markers fill"
       id="rect4691"
       width="3.9805617"
       height="0.98037571"
       x="275.6207"
       y="-79.977402"
       transform="rotate(90)" />
    <g
       id="g4752"
       transform="matrix(0.03652714,0,0,0.03652714,82.328745,243.05992)">
      <path
         id="path4697"
         d="m 383.724,25.938 c -0.996,-1.948 -3.614,-2.173 -5.497,-2.173 -6.524,0 -19.293,3.342 -38.619,8.401 l -6.313,1.65 c -29.341,7.654 -57.44,29.308 -69.439,38.554 -0.156,0.121 -0.312,0.24 -0.465,0.358 10.943,-14.288 39.899,-58.389 37.491,-63.508 -0.268,-0.569 -0.793,-0.896 -1.439,-0.896 -2.642,0 -5.58,2.904 -10.915,8.175 -7.599,7.509 -20.317,20.077 -43.252,35.181 -14.72,9.693 -30.601,23.549 -44.611,35.773 -17.986,15.694 -34.976,30.517 -43.001,30.517 -1.505,0 -2.621,-0.538 -3.412,-1.645 -10.42,-14.588 -21.137,-22.438 -31.852,-23.331 -2.271,-0.189 -4.618,-0.385 -7.005,-0.385 -8.986,0 -19.149,2.478 -32.547,20.45 -2.979,3.996 -31.849,7.292 -52.928,9.699 -11.193,1.278 -20.861,2.382 -25.997,3.434 -2.8,0.574 -4.033,0.876 -3.916,2.035 0.114,1.121 1.187,1.215 4.474,1.215 3.98,0 11.146,-0.303 19.444,-0.654 12.664,-0.535 28.424,-1.202 41.771,-1.202 14.361,0 23.162,0.788 26.157,2.34 11.595,6.013 28.644,28.373 43.432,56.964 14.352,27.743 51.062,57.135 74.296,64.881 17.773,5.924 20.582,21.688 24.833,45.55 1.084,6.082 2.313,12.975 3.903,20.207 5.334,24.245 8.33,27.514 10.557,27.514 1.922,0 3.157,-2.461 4.007,-7.979 0.119,-0.774 0.213,-1.506 0.288,-2.194 7.993,27.849 12.179,31.438 14.934,31.438 0.588,0 1.113,-0.257 1.478,-0.725 1.638,-2.102 0.009,-9.001 -2.784,-20.085 -1.459,-5.788 -3.409,-13.529 -3.139,-15.786 2.215,2.14 8.189,13.213 12.638,21.459 10.12,18.76 13.643,24.601 15.957,24.601 0.267,0 0.525,-0.071 0.75,-0.206 2.425,-1.456 0.114,-8.078 -6.607,-25.241 -3.538,-9.035 -7.195,-18.373 -7.593,-22.409 2.043,1.521 7.087,8.021 10.872,12.9 7.847,10.112 11.498,14.544 13.536,14.543 0.447,0 0.849,-0.184 1.131,-0.516 0.449,-0.53 0.552,-1.361 0.331,-2.695 -0.912,-5.529 -8.326,-22.428 -16.177,-40.32 -6.731,-15.341 -13.691,-31.205 -15.339,-37.461 -3.617,-13.747 -24.722,-65.823 -31.102,-78.583 -4.242,-8.484 11.376,-18.218 22.779,-25.326 5.006,-3.12 9.329,-5.815 11.563,-8.048 3.602,-3.602 7.599,-5.378 11.831,-7.259 4.213,-1.872 8.568,-3.808 12.433,-7.672 5.19,-5.191 6.064,-9.559 6.909,-13.783 0.416,-2.081 0.809,-4.046 1.701,-6.127 1.171,-2.731 5.116,-4.304 9.294,-5.969 4.895,-1.951 10.443,-4.163 13.059,-8.871 1.837,-3.306 2.943,-7.209 4.014,-10.984 1.584,-5.589 3.081,-10.869 6.585,-11.871 6.726,-1.922 17.338,-8.608 19.346,-15.132 l 0.334,-1.097 c 1.954,-6.434 6.529,-21.5 17.893,-37.233 3.808,-5.277 4.984,-8.409 3.928,-10.473 z"
         inkscape:connector-curvature="0" />
      <g
         id="g4699" />
      <g
         id="g4701" />
      <g
         id="g4703" />
      <g
         id="g4705" />
      <g
         id="g4707" />
      <g
         id="g4709" />
      <g
         id="g4711" />
      <g
         id="g4713" />
      <g
         id="g4715" />
      <g
         id="g4717" />
      <g
         id="g4719" />
      <g
         id="g4721" />
      <g
         id="g4723" />
      <g
         id="g4725" />
      <g
         id="g4727" />
    </g>
    <text
       xml:space="preserve"
       style="font-style:normal;font-weight:normal;font-size:3.17866898px;line-height:125%;font-family:sans-serif;letter-spacing:0px;word-spacing:0px;fill:#000000;fill-opacity:1;stroke:none;stroke-width:0.07946672px;stroke-linecap:butt;stroke-linejoin:miter;stroke-opacity:1"
       x="100.16056"
       y="195.55898"
       id="text4756"
       transform="scale(0.80599808,1.2406977)"><tspan
         sodipodi:role="line"
         id="tspan4754"
         x="100.16056"
         y="195.55898"
         style="stroke-width:0.07946672px;-inkscape-font-specification:'Berlin Sans FB Demi';font-family:'Berlin Sans FB Demi';font-weight:normal;font-style:normal;font-stretch:normal;font-variant:normal">Hummingbird </tspan></text>
    <text
       xml:space="preserve"
       style="font-style:normal;font-weight:normal;font-size:2.58991528px;line-height:125%;font-family:sans-serif;letter-spacing:0px;word-spacing:0px;fill:#ffffff;fill-opacity:1;stroke:none;stroke-width:0.06474788px;stroke-linecap:butt;stroke-linejoin:miter;stroke-opacity:1;"
       x="16.628841"
       y="277.04422"
       id="text4760"
       transform="scale(1.1079166,0.90259498)"><tspan
         sodipodi:role="line"
         id="tspan4758"
         x="16.628841"
         y="277.04422"
         style="stroke-width:0.06474788px;fill:#ffffff;fill-opacity:1;">1  2  3  4  5  6  7  8  9 10 11 12 13 14 15 16 </tspan></text>
    <text
       xml:space="preserve"
       style="font-style:normal;font-weight:normal;font-size:2.64702535px;line-height:125%;font-family:sans-serif;letter-spacing:0px;word-spacing:0px;fill:#000000;fill-opacity:1;stroke:none;stroke-width:0.06617563px;stroke-linecap:butt;stroke-linejoin:miter;stroke-opacity:1"
       x="18.110365"
       y="268.66965"
       id="text4764"><tspan
         sodipodi:role="line"
         id="tspan4762"
         x="18.110365"
         y="268.66965"
         style="stroke-width:0.06617563px">VDI    Level                                      Amp/Bat/Gnd</tspan></text>
    <g
       id="g4774"
       style="fill:#fcfcfc;fill-opacity:1">
      <path
         id="path4605"
         d="m 31.735727,284.90685 c -2.209148,0 -4.00005,1.79083 -4.00005,4 0,2.20908 1.790902,4 3.99995,4 2.209148,10e-5 4.00005,-1.79082 4.00005,-4 0,-2.20917 -1.790902,-4 -3.99995,-4 z m 0,6.97928 c -1.645329,0 -2.979245,-1.33383 -2.979245,-2.97928 0,-1.64545 1.333816,-2.97928 2.979245,-2.97928 1.645429,0 2.979245,1.33383 2.979245,2.97928 0,1.64545 -1.333916,2.97928 -2.979245,2.97928 z"
         inkscape:connector-curvature="0"
         style="fill:#fcfcfc;stroke-width:0.09984461;fill-opacity:1" />
      <circle
         r="0.64198697"
         cy="288.90289"
         cx="31.761168"
         id="path4613"
         style="fill:#fcfcfc;fill-opacity:1;stroke:none;stroke-width:0.33344001;stroke-opacity:1" />
      <circle
         style="fill:#fcfcfc;fill-opacity:1;stroke:none;stroke-width:0.33344001;stroke-opacity:1"
         id="circle4766"
         cx="30.173666"
         cy="288.90289"
         r="0.64198697" />
      <circle
         style="fill:#fcfcfc;fill-opacity:1;stroke:none;stroke-width:0.33344001;stroke-opacity:1"
         id="circle4768"
         cx="33.348667"
         cy="288.90289"
         r="0.64198697" />
    </g>
  </g>
</svg>
