<?xml version="1.0" encoding="UTF-8" standalone="no"?>
<!-- Created with Inkscape (http://www.inkscape.org/) -->

<svg
   xmlns:dc="http://purl.org/dc/elements/1.1/"
   xmlns:cc="http://creativecommons.org/ns#"
   xmlns:rdf="http://www.w3.org/1999/02/22-rdf-syntax-ns#"
   xmlns:svg="http://www.w3.org/2000/svg"
   xmlns="http://www.w3.org/2000/svg"
   xmlns:sodipodi="http://sodipodi.sourceforge.net/DTD/sodipodi-0.dtd"
   xmlns:inkscape="http://www.inkscape.org/namespaces/inkscape"
   width="744.09448819"
   height="1052.3622047"
   id="svg2"
   version="1.1"
   inkscape:version="0.48.4 r9939"
   sodipodi:docname="Оформление.svg">
  <defs
     id="defs4" />
  <sodipodi:namedview
     id="base"
     pagecolor="#ffffff"
     bordercolor="#666666"
     borderopacity="1.0"
     inkscape:pageopacity="0.0"
     inkscape:pageshadow="2"
     inkscape:zoom="3.959798"
     inkscape:cx="190.58627"
     inkscape:cy="73.688883"
     inkscape:document-units="mm"
     inkscape:current-layer="layer1"
     showgrid="false"
     showguides="true"
     inkscape:guide-bbox="true"
     inkscape:snap-bbox="true"
     inkscape:snap-bbox-midpoints="true"
     inkscape:snap-to-guides="true"
     inkscape:window-width="1920"
     inkscape:window-height="1058"
     inkscape:window-x="-8"
     inkscape:window-y="-8"
     inkscape:window-maximized="1">
    <sodipodi:guide
       orientation="1,0"
       position="104.52756,159.28571"
       id="guide4058" />
    <sodipodi:guide
       orientation="1,0"
       position="138.18898,107.07617"
       id="guide4060" />
    <sodipodi:guide
       orientation="1,0"
       position="168.30709,108.84394"
       id="guide4062" />
    <sodipodi:guide
       orientation="1,0"
       position="201.9685,132.83506"
       id="guide4064" />
    <sodipodi:guide
       orientation="1,0"
       position="271.06299,82.074894"
       id="guide4066" />
    <sodipodi:guide
       orientation="0,1"
       position="84.347738,17.716535"
       id="guide4068" />
    <sodipodi:guide
       orientation="0,1"
       position="93.439111,33.661417"
       id="guide4070" />
    <sodipodi:guide
       orientation="0,1"
       position="-8.8388348,51.265242"
       id="guide4072" />
    <sodipodi:guide
       orientation="1,0"
       position="54.92126,127.40549"
       id="guide4074" />
    <sodipodi:guide
       orientation="1,0"
       position="67.322835,164.02352"
       id="guide4078" />
    <sodipodi:guide
       orientation="1,0"
       position="267.51969,135"
       id="guide4080" />
    <sodipodi:guide
       orientation="0,1"
       position="44.446712,177.16535"
       id="guide4082" />
    <sodipodi:guide
       orientation="1,0"
       position="17.716535,217.85714"
       id="guide4084" />
    <sodipodi:guide
       orientation="1,0"
       position="318.89763,140"
       id="guide4086" />
    <sodipodi:guide
       orientation="1,0"
       position="277.28687,169.45309"
       id="guide4088" />
    <sodipodi:guide
       orientation="0,1"
       position="47.5,23.031496"
       id="guide4260" />
  </sodipodi:namedview>
  <metadata
     id="metadata7">
    <rdf:RDF>
      <cc:Work
         rdf:about="">
        <dc:format>image/svg+xml</dc:format>
        <dc:type
           rdf:resource="http://purl.org/dc/dcmitype/StillImage" />
      </cc:Work>
    </rdf:RDF>
  </metadata>
  <g
     inkscape:label="Layer 1"
     inkscape:groupmode="layer"
     id="layer1">
    <rect
       y="857.48029"
       x="1.55571e-007"
       height="194.88188"
       width="336.61417"
       id="rect4254"
       style="fill:#ffffff;fill-opacity:1;stroke:#000000;stroke-opacity:1;stroke-width:0.35433071;stroke-miterlimit:4;stroke-dasharray:none" />
    <rect
       style="fill:#232323;fill-opacity:1;stroke:none"
       id="rect4493"
       width="329.52756"
       height="187.79527"
       x="3.5433071"
       y="861.02362"
       ry="12.5" />
    <circle
       transform="matrix(3.543307,0,0,3.543307,-10.96155,11.572953)"
       d="m 25.950527,287.23386 c 0,2.13012 -1.726808,3.85693 -3.856933,3.85693 -2.130126,0 -3.856934,-1.72681 -3.856934,-3.85693 0,-2.13013 1.726808,-3.85694 3.856934,-3.85694 2.130125,0 3.856933,1.72681 3.856933,3.85694 z"
       sodipodi:ry="3.8569331"
       sodipodi:rx="3.8569331"
       sodipodi:cy="287.23386"
       sodipodi:cx="22.093594"
       r="3.8569331"
       cy="287.23386"
       cx="22.093594"
       id="circle4519"
       style="fill:#ffffff;stroke:none;stroke-width:0.28613361999999998;stroke-opacity:1;fill-opacity:1" />
    <rect
       style="fill:#ffffff;stroke:none;stroke-width:0.79993099000000001;stroke-opacity:1;fill-opacity:1"
       id="rect4521"
       width="225.97173"
       height="49.51503"
       x="55.321228"
       y="901.46289" />
    <text
       sodipodi:linespacing="125%"
       xml:space="preserve"
       style="font-size:27.84898757999999900px;font-style:normal;font-weight:normal;line-height:125%;letter-spacing:0px;word-spacing:0px;fill:#ffffff;fill-opacity:1;stroke:#000000;stroke-width:0;stroke-linecap:butt;stroke-linejoin:miter;stroke-miterlimit:4;stroke-opacity:1;stroke-dasharray:none;font-family:sans-serif"
       x="-1065.3458"
       y="37.500381"
       id="text4525"
       transform="matrix(0,-0.97228737,1.0285025,0,0,0)"><tspan
         sodipodi:role="line"
         id="tspan4523"
         x="-1065.3458"
         y="37.500381"
         style="font-style:normal;font-variant:normal;font-weight:bold;font-stretch:normal;fill:#ffffff;fill-opacity:1;stroke:#000000;stroke-width:0;stroke-miterlimit:4;stroke-opacity:1;stroke-dasharray:none;font-family:Arial;-inkscape-font-specification:Arial Bold">Quasar ARM</tspan></text>
    <g
       id="g4579"
       transform="matrix(0.35377791,0,0,0.35378234,86.860776,983.3859)"
       style="fill:#ffffff;fill-opacity:1">
      <path
         style="fill:#ffffff;fill-opacity:1"
         inkscape:connector-curvature="0"
         d="M 49.938,10 C 27.812,10 9.875,27.936 9.875,50.062 9.875,72.187 27.812,90.124 49.937,90.124 72.063,90.125 90,72.188 90,50.062 90,27.936 72.063,10 49.938,10 z m 0,69.901 c -16.479,0 -29.839,-13.359 -29.839,-29.839 0,-16.48 13.359,-29.839 29.839,-29.839 16.48,0 29.839,13.359 29.839,29.839 0,16.48 -13.36,29.839 -29.839,29.839 z"
         id="path4575" />
      <polygon
         style="fill:#ffffff;fill-opacity:1;fill-rule:evenodd"
         points="29.984,55.995 35.502,48.341 46.427,56.448 62.15,33.728 69.89,39.568 48.585,70.199 "
         id="polygon4577" />
    </g>
    <g
       transform="matrix(3.543307,0,0,3.543307,-7.3406304,10.551121)"
       id="g4669"
       style="fill:#ffffff;fill-opacity:1">
      <path
         style="fill:#ffffff;fill-opacity:1;stroke-width:0.09984461"
         inkscape:connector-curvature="0"
         d="m 41.071741,280.52224 c -2.209148,0 -4.00005,1.79083 -4.00005,4 0,2.20908 1.790902,4 3.99995,4 2.209148,10e-5 4.00005,-1.79082 4.00005,-4 0,-2.20917 -1.790902,-4 -3.99995,-4 z m 0,6.97928 c -1.645329,0 -2.979245,-1.33383 -2.979245,-2.97928 0,-1.64545 1.333816,-2.97928 2.979245,-2.97928 1.645429,0 2.979245,1.33383 2.979245,2.97928 0,1.64545 -1.333916,2.97928 -2.979245,2.97928 z"
         id="path4619" />
      <g
         id="g4623"
         transform="matrix(-0.07918391,0,0,0.07918391,44.51504,205.16261)"
         style="fill:#ffffff;fill-opacity:1">
        <path
           id="path4621"
           overflow="visible"
           display="inline"
           visibility="visible"
           d="m 69.281235,1002.3622 -3.78125,-4.09376 -26.00002,-28 -8.7812,8.1875 22.18747,23.90626 -22.18747,23.9062 8.7812,8.1875 26.00002,-28 z"
           style="text-indent:0;text-transform:none;direction:ltr;baseline-shift:baseline;color:#000000;fill:#ffffff;fill-opacity:1;stroke:none;marker:none;visibility:visible;display:inline;overflow:visible;enable-background:accumulate"
           inkscape:connector-curvature="0" />
      </g>
    </g>
    <g
       id="g4656"
       transform="matrix(0,-3.543307,3.543307,0,-855.37845,1213.2389)"
       style="fill:#ffffff;fill-opacity:1">
      <path
         id="path4647"
         d="m 50.403029,284.90682 c -2.209148,0 -4.00005,1.79083 -4.00005,4 0,2.20908 1.790902,4 3.99995,4 2.209148,1e-4 4.00005,-1.79082 4.00005,-4 0,-2.20917 -1.790902,-4 -3.99995,-4 z m 0,6.97928 c -1.645329,0 -2.979245,-1.33383 -2.979245,-2.97928 0,-1.64545 1.333816,-2.97928 2.979245,-2.97928 1.645429,0 2.979245,1.33383 2.979245,2.97928 0,1.64545 -1.333916,2.97928 -2.979245,2.97928 z"
         inkscape:connector-curvature="0"
         style="fill:#ffffff;fill-opacity:1;stroke-width:0.09984461" />
      <g
         transform="matrix(-0.07918391,0,0,0.07918391,53.846328,209.54719)"
         id="g4651"
         style="fill:#ffffff;fill-opacity:1">
        <path
           inkscape:connector-curvature="0"
           style="text-indent:0;text-transform:none;direction:ltr;baseline-shift:baseline;color:#000000;fill:#ffffff;fill-opacity:1;stroke:none;marker:none;visibility:visible;display:inline;overflow:visible;enable-background:accumulate"
           d="m 69.281235,1002.3622 -3.78125,-4.09376 -26.00002,-28 -8.7812,8.1875 22.18747,23.90626 -22.18747,23.9062 8.7812,8.1875 26.00002,-28 z"
           visibility="visible"
           display="inline"
           overflow="visible"
           id="path4649" />
      </g>
    </g>
    <g
       transform="matrix(0,3.543307,3.543307,0,-855.37845,822.50371)"
       id="g4664"
       style="fill:#ffffff;fill-opacity:1">
      <path
         style="fill:#ffffff;fill-opacity:1;stroke-width:0.09984461"
         inkscape:connector-curvature="0"
         d="m 50.403029,284.90682 c -2.209148,0 -4.00005,1.79083 -4.00005,4 0,2.20908 1.790902,4 3.99995,4 2.209148,1e-4 4.00005,-1.79082 4.00005,-4 0,-2.20917 -1.790902,-4 -3.99995,-4 z m 0,6.97928 c -1.645329,0 -2.979245,-1.33383 -2.979245,-2.97928 0,-1.64545 1.333816,-2.97928 2.979245,-2.97928 1.645429,0 2.979245,1.33383 2.979245,2.97928 0,1.64545 -1.333916,2.97928 -2.979245,2.97928 z"
         id="path4658" />
      <g
         id="g4662"
         transform="matrix(-0.07918391,0,0,0.07918391,53.846328,209.54719)"
         style="fill:#ffffff;fill-opacity:1">
        <path
           id="path4660"
           overflow="visible"
           display="inline"
           visibility="visible"
           d="m 69.281235,1002.3622 -3.78125,-4.09376 -26.00002,-28 -8.7812,8.1875 22.18747,23.90626 -22.18747,23.9062 8.7812,8.1875 26.00002,-28 z"
           style="text-indent:0;text-transform:none;direction:ltr;baseline-shift:baseline;color:#000000;fill:#ffffff;fill-opacity:1;stroke:none;marker:none;visibility:visible;display:inline;overflow:visible;enable-background:accumulate"
           inkscape:connector-curvature="0" />
      </g>
    </g>
    <g
       id="g4677"
       transform="matrix(-3.543307,0,0,3.543307,347.49811,10.551121)"
       style="fill:#ffffff;fill-opacity:1">
      <path
         id="path4671"
         d="m 41.071741,280.52224 c -2.209148,0 -4.00005,1.79083 -4.00005,4 0,2.20908 1.790902,4 3.99995,4 2.209148,10e-5 4.00005,-1.79082 4.00005,-4 0,-2.20917 -1.790902,-4 -3.99995,-4 z m 0,6.97928 c -1.645329,0 -2.979245,-1.33383 -2.979245,-2.97928 0,-1.64545 1.333816,-2.97928 2.979245,-2.97928 1.645429,0 2.979245,1.33383 2.979245,2.97928 0,1.64545 -1.333916,2.97928 -2.979245,2.97928 z"
         inkscape:connector-curvature="0"
         style="fill:#ffffff;fill-opacity:1;stroke-width:0.09984461" />
      <g
         transform="matrix(-0.07918391,0,0,0.07918391,44.51504,205.16261)"
         id="g4675"
         style="fill:#ffffff;fill-opacity:1">
        <path
           inkscape:connector-curvature="0"
           style="text-indent:0;text-transform:none;direction:ltr;baseline-shift:baseline;color:#000000;fill:#ffffff;fill-opacity:1;stroke:none;marker:none;visibility:visible;display:inline;overflow:visible;enable-background:accumulate"
           d="m 69.281235,1002.3622 -3.78125,-4.09376 -26.00002,-28 -8.7812,8.1875 22.18747,23.90626 -22.18747,23.9062 8.7812,8.1875 26.00002,-28 z"
           visibility="visible"
           display="inline"
           overflow="visible"
           id="path4673" />
      </g>
    </g>
    <path
       id="path4679"
       d="m 271.06281,986.92372 c 7.82769,0 14.17341,6.34546 14.17341,14.17318 0,7.8275 -6.34572,14.1733 -14.17305,14.1733 -7.82769,3e-4 -14.17341,-6.3455 -14.17341,-14.1733 0,-7.82772 6.34572,-14.17318 14.17305,-14.17318 z m 0,24.72968 c 5.82991,0 10.55638,-4.7261 10.55638,-10.5565 0,-5.83029 -4.72612,-10.55646 -10.55638,-10.55646 -5.83026,0 -10.55638,4.72617 -10.55638,10.55646 0,5.8304 4.72648,10.5565 10.55638,10.5565 z"
       inkscape:connector-curvature="0"
       style="fill:#ffffff;fill-opacity:1;stroke-width:0.09984461" />
    <rect
       style="fill:#ffffff;fill-opacity:1;stroke:#232323;stroke-width:1.051;stroke-miterlimit:4;stroke-opacity:1;stroke-dasharray:none"
       id="rect4691"
       width="14.104352"
       height="3.473772"
       x="985.35809"
       y="-272.76733"
       transform="matrix(0,1,-1,0,0,0)" />
    <g
       style="fill:#ffffff;fill-opacity:1"
       id="g4752"
       transform="matrix(0.10838717,0,0,0.10838717,277.26681,874.29464)">
      <path
         style="fill:#ffffff;fill-opacity:1"
         id="path4697"
         d="m 383.724,25.938 c -0.996,-1.948 -3.614,-2.173 -5.497,-2.173 -6.524,0 -19.293,3.342 -38.619,8.401 l -6.313,1.65 c -29.341,7.654 -57.44,29.308 -69.439,38.554 -0.156,0.121 -0.312,0.24 -0.465,0.358 10.943,-14.288 39.899,-58.389 37.491,-63.508 -0.268,-0.569 -0.793,-0.896 -1.439,-0.896 -2.642,0 -5.58,2.904 -10.915,8.175 -7.599,7.509 -20.317,20.077 -43.252,35.181 -14.72,9.693 -30.601,23.549 -44.611,35.773 -17.986,15.694 -34.976,30.517 -43.001,30.517 -1.505,0 -2.621,-0.538 -3.412,-1.645 -10.42,-14.588 -21.137,-22.438 -31.852,-23.331 -2.271,-0.189 -4.618,-0.385 -7.005,-0.385 -8.986,0 -19.149,2.478 -32.547,20.45 -2.979,3.996 -31.849,7.292 -52.928,9.699 -11.193,1.278 -20.861,2.382 -25.997,3.434 -2.8,0.574 -4.033,0.876 -3.916,2.035 0.114,1.121 1.187,1.215 4.474,1.215 3.98,0 11.146,-0.303 19.444,-0.654 12.664,-0.535 28.424,-1.202 41.771,-1.202 14.361,0 23.162,0.788 26.157,2.34 11.595,6.013 28.644,28.373 43.432,56.964 14.352,27.743 51.062,57.135 74.296,64.881 17.773,5.924 20.582,21.688 24.833,45.55 1.084,6.082 2.313,12.975 3.903,20.207 5.334,24.245 8.33,27.514 10.557,27.514 1.922,0 3.157,-2.461 4.007,-7.979 0.119,-0.774 0.213,-1.506 0.288,-2.194 7.993,27.849 12.179,31.438 14.934,31.438 0.588,0 1.113,-0.257 1.478,-0.725 1.638,-2.102 0.009,-9.001 -2.784,-20.085 -1.459,-5.788 -3.409,-13.529 -3.139,-15.786 2.215,2.14 8.189,13.213 12.638,21.459 10.12,18.76 13.643,24.601 15.957,24.601 0.267,0 0.525,-0.071 0.75,-0.206 2.425,-1.456 0.114,-8.078 -6.607,-25.241 -3.538,-9.035 -7.195,-18.373 -7.593,-22.409 2.043,1.521 7.087,8.021 10.872,12.9 7.847,10.112 11.498,14.544 13.536,14.543 0.447,0 0.849,-0.184 1.131,-0.516 0.449,-0.53 0.552,-1.361 0.331,-2.695 -0.912,-5.529 -8.326,-22.428 -16.177,-40.32 -6.731,-15.341 -13.691,-31.205 -15.339,-37.461 -3.617,-13.747 -24.722,-65.823 -31.102,-78.583 -4.242,-8.484 11.376,-18.218 22.779,-25.326 5.006,-3.12 9.329,-5.815 11.563,-8.048 3.602,-3.602 7.599,-5.378 11.831,-7.259 4.213,-1.872 8.568,-3.808 12.433,-7.672 5.19,-5.191 6.064,-9.559 6.909,-13.783 0.416,-2.081 0.809,-4.046 1.701,-6.127 1.171,-2.731 5.116,-4.304 9.294,-5.969 4.895,-1.951 10.443,-4.163 13.059,-8.871 1.837,-3.306 2.943,-7.209 4.014,-10.984 1.584,-5.589 3.081,-10.869 6.585,-11.871 6.726,-1.922 17.338,-8.608 19.346,-15.132 l 0.334,-1.097 c 1.954,-6.434 6.529,-21.5 17.893,-37.233 3.808,-5.277 4.984,-8.409 3.928,-10.473 z"
         inkscape:connector-curvature="0" />
      <g
         style="fill:#ffffff;fill-opacity:1"
         id="g4699" />
      <g
         style="fill:#ffffff;fill-opacity:1"
         id="g4701" />
      <g
         style="fill:#ffffff;fill-opacity:1"
         id="g4703" />
      <g
         style="fill:#ffffff;fill-opacity:1"
         id="g4705" />
      <g
         style="fill:#ffffff;fill-opacity:1"
         id="g4707" />
      <g
         style="fill:#ffffff;fill-opacity:1"
         id="g4709" />
      <g
         style="fill:#ffffff;fill-opacity:1"
         id="g4711" />
      <g
         style="fill:#ffffff;fill-opacity:1"
         id="g4713" />
      <g
         style="fill:#ffffff;fill-opacity:1"
         id="g4715" />
      <g
         style="fill:#ffffff;fill-opacity:1"
         id="g4717" />
      <g
         style="fill:#ffffff;fill-opacity:1"
         id="g4719" />
      <g
         style="fill:#ffffff;fill-opacity:1"
         id="g4721" />
      <g
         style="fill:#ffffff;fill-opacity:1"
         id="g4723" />
      <g
         style="fill:#ffffff;fill-opacity:1"
         id="g4725" />
      <g
         style="fill:#ffffff;fill-opacity:1"
         id="g4727" />
    </g>
    <text
       sodipodi:linespacing="125%"
       xml:space="preserve"
       style="font-size:8.18821334999999980px;font-style:normal;font-weight:normal;line-height:125%;letter-spacing:0px;word-spacing:0px;fill:#ffffff;fill-opacity:1;stroke:none;font-family:sans-serif"
       x="325.59268"
       y="743.51196"
       id="text4756"
       transform="scale(0.85189725,1.1738505)"><tspan
         sodipodi:role="line"
         id="tspan4754"
         x="325.59268"
         y="743.51196"
         style="font-style:normal;font-variant:normal;font-weight:normal;font-stretch:normal;fill:#ffffff;fill-opacity:1;font-family:Berlin Sans FB Demi;-inkscape-font-specification:Berlin Sans FB Demi">Hummingbird </tspan></text>
    <text
       sodipodi:linespacing="125%"
       xml:space="preserve"
       style="font-size:7.67043161px;font-style:normal;font-weight:normal;line-height:125%;letter-spacing:0px;word-spacing:0px;fill:#ffffff;fill-opacity:1;stroke:none;font-family:sans-serif"
       x="72.71846"
       y="831.63727"
       id="text4760"
       transform="scale(0.92604596,1.07986)"><tspan
         sodipodi:role="line"
         id="tspan4758"
         x="72.71846"
         y="831.63727"
         style="font-style:normal;font-variant:normal;font-weight:bold;font-stretch:normal;fill:#ffffff;fill-opacity:1;font-family:Monospace;-inkscape-font-specification:Monospace Bold"> 1  2  3  4  5  6  7  8  9 10 11 12 13 14 15 16 </tspan></text>
    <text
       transform="scale(0.98280629,1.0174945)"
       sodipodi:linespacing="125%"
       xml:space="preserve"
       style="font-size:9.21795845px;font-style:normal;font-weight:normal;line-height:125%;letter-spacing:0px;word-spacing:0px;fill:#000000;fill-opacity:1;stroke:none;font-family:sans-serif"
       x="89.522461"
       y="943.17993"
       id="text4764"><tspan
         style="font-style:normal;font-variant:normal;font-weight:bold;font-stretch:normal;fill:#ffffff;fill-opacity:1;font-family:Monospace;-inkscape-font-specification:Monospace Bold"
         sodipodi:role="line"
         id="tspan4762"
         x="89.522461"
         y="943.17993">VDI  /  Level          Bat/Amp/GB</tspan></text>
    <g
       transform="matrix(3.543307,0,0,3.543307,-7.9216867,10.959983)"
       id="g4774"
       style="fill:#fcfcfc;fill-opacity:1">
      <path
         id="path4605"
         d="m 31.735727,284.90685 c -2.209148,0 -4.00005,1.79083 -4.00005,4 0,2.20908 1.790902,4 3.99995,4 2.209148,10e-5 4.00005,-1.79082 4.00005,-4 0,-2.20917 -1.790902,-4 -3.99995,-4 z m 0,6.97928 c -1.645329,0 -2.979245,-1.33383 -2.979245,-2.97928 0,-1.64545 1.333816,-2.97928 2.979245,-2.97928 1.645429,0 2.979245,1.33383 2.979245,2.97928 0,1.64545 -1.333916,2.97928 -2.979245,2.97928 z"
         inkscape:connector-curvature="0"
         style="fill:#fcfcfc;fill-opacity:1;stroke-width:0.09984461" />
      <circle
         d="m 32.403154,288.90289 c 0,0.35456 -0.287427,0.64199 -0.641986,0.64199 -0.35456,0 -0.641987,-0.28743 -0.641987,-0.64199 0,-0.35456 0.287427,-0.64198 0.641987,-0.64198 0.354559,0 0.641986,0.28742 0.641986,0.64198 z"
         sodipodi:ry="0.64198697"
         sodipodi:rx="0.64198697"
         sodipodi:cy="288.90289"
         sodipodi:cx="31.761168"
         r="0.64198697"
         cy="288.90289"
         cx="31.761168"
         id="path4613"
         style="fill:#fcfcfc;fill-opacity:1;stroke:none" />
      <circle
         d="m 30.815653,288.90289 c 0,0.35456 -0.287427,0.64199 -0.641987,0.64199 -0.35456,0 -0.641987,-0.28743 -0.641987,-0.64199 0,-0.35456 0.287427,-0.64198 0.641987,-0.64198 0.35456,0 0.641987,0.28742 0.641987,0.64198 z"
         sodipodi:ry="0.64198697"
         sodipodi:rx="0.64198697"
         sodipodi:cy="288.90289"
         sodipodi:cx="30.173666"
         style="fill:#fcfcfc;fill-opacity:1;stroke:none"
         id="circle4766"
         cx="30.173666"
         cy="288.90289"
         r="0.64198697" />
      <circle
         d="m 33.990654,288.90289 c 0,0.35456 -0.287427,0.64199 -0.641987,0.64199 -0.354559,0 -0.641987,-0.28743 -0.641987,-0.64199 0,-0.35456 0.287428,-0.64198 0.641987,-0.64198 0.35456,0 0.641987,0.28742 0.641987,0.64198 z"
         sodipodi:ry="0.64198697"
         sodipodi:rx="0.64198697"
         sodipodi:cy="288.90289"
         sodipodi:cx="33.348667"
         style="fill:#fcfcfc;fill-opacity:1;stroke:none"
         id="circle4768"
         cx="33.348667"
         cy="288.90289"
         r="0.64198697" />
    </g>
  </g>
</svg>
